<?xml version="1.0" encoding="utf-8"?>
<!-- Generator: Adobe Illustrator 16.0.0, SVG Export Plug-In . SVG Version: 6.00 Build 0)  -->
<!DOCTYPE svg PUBLIC "-//W3C//DTD SVG 1.1//EN" "http://www.w3.org/Graphics/SVG/1.1/DTD/svg11.dtd">
<svg version="1.1" id="Layer_1" xmlns="http://www.w3.org/2000/svg" xmlns:xlink="http://www.w3.org/1999/xlink" x="0px" y="0px"
	 width="100px" height="100px" viewBox="0 0 100 100" enable-background="new 0 0 100 100" xml:space="preserve">
<path d="M83.55,66.75c0,6.199-9.2,8.4-14,8.4s-14-2.201-14-8.4s9.2-8.4,14-8.4c2.9,0,5.8,0.5,8.4,1.701V36.65l-33.5,10.4v30.899
	c0,6.201-9.2,8.4-14,8.4c-4.801,0-14-2.199-14-8.4c0-6.199,9.199-8.398,14-8.398c2.899,0,5.8,0.5,8.399,1.699v-42.2
	c0-1.8,1.2-3.4,3-4l36.3-11.2c0.4-0.1,0.801-0.2,1.2-0.2c2.3,0,4.2,1.9,4.2,4.2V66.75z"/>
</svg>
